<svg width="32" height="32" viewBox="0 0 32 32" fill="none" xmlns="http://www.w3.org/2000/svg">
<mask id="path-1-inside-1_22_2" fill="white">
<path d="M2 3H6V29H2V3Z"/>
</mask>
<path d="M2 3V2H1V3H2ZM2 29H1V30H2V29ZM2 3V4H6V3V2H2V3ZM6 29V28H2V29V30H6V29ZM2 29H3V3H2H1V29H2Z" fill="white" fill-opacity="0.25" mask="url(#path-1-inside-1_22_2)"/>
<mask id="path-3-inside-2_22_2" fill="white">
<path d="M30 3H26V29H30V3Z"/>
</mask>
<path d="M30 3V2H31V3H30ZM30 29H31V30H30V29ZM30 3V4H26V3V2H30V3ZM26 29V28H30V29V30H26V29ZM30 29H29V3H30H31V29H30Z" fill="white" fill-opacity="0.25" mask="url(#path-3-inside-2_22_2)"/>
<path d="M16 9.768C16.992 10.176 18.12 10.4 19.2 10.4C20.04 10.4 20.88 10.272 21.664 10.032C21.2 10.8 20.8 11.768 20.8 12.8C20.8 13.856 21.232 15.144 21.68 16.504C22 17.464 22.4 18.664 22.4 19.2C22.4 20.024 19.576 21.6 16 22.368C12.432 21.6 9.6 20.024 9.6 19.2C9.6 18.664 10 17.464 10.32 16.504C10.768 15.144 11.2 13.856 11.2 12.8C11.2 11.768 10.8 10.8 10.336 10.032C11.12 10.272 11.968 10.4 12.8 10.4C13.88 10.4 15.008 10.176 16 9.768ZM22.4 8C21.48 8.512 20.32 8.8 19.2 8.8C18.08 8.8 16.912 8.504 16 8C15.088 8.504 13.92 8.8 12.8 8.8C11.68 8.8 10.52 8.512 9.6 8L8 9.6C8 9.6 9.6 11.2 9.6 12.8C9.6 14.4 8 17.6 8 19.2C8 22.4 16 24 16 24C16 24 24 22.4 24 19.2C24 17.6 22.4 14.4 22.4 12.8C22.4 11.2 24 9.6 24 9.6L22.4 8ZM18.44 19.56L15.976 18.072L13.52 19.56L14.176 16.76L12 14.888L14.864 14.64L15.976 12L17.096 14.632L19.96 14.88L17.784 16.752L18.44 19.56Z" fill="white"/>
<rect x="2" y="3" width="28" height="26" fill="white" fill-opacity="0.2"/>
</svg>
